# xmcd CD database file
#
# Track frame offsets:
#	150
#	26172
#	53860
#	75492
#	97145
#	111850
#	125990
#	150222
#	174122
#	207440
#
# Disc length: 3085 seconds
#
# Revision: 2
# Processed by: cddbd v1.5.2PL0 Copyright (c) Steve Scherf et al.
# Submitted via: jetAudio 5
#
DISCID=7f0c0b0a
DTITLE=Various Artist - Ha noi mua la bay
DYEAR=1900
DGENRE=
TTITLE0=Co phai em mua thu Ha noi
TTITLE1=Ha noi dem tro gio
TTITLE2=Chi toi
TTITLE3=Doa hoa doi
TTITLE4=Ha noi mua vang nhung con mua
TTITLE5=Ngay tho
TTITLE6=Ha noi mua la bay
TTITLE7=Chieu Ha noi
TTITLE8=Tren dinh Phu Van
TTITLE9=Khoanh khac
EXTD=
EXTT0=
EXTT1=
EXTT2=
EXTT3=
EXTT4=
EXTT5=
EXTT6=
EXTT7=
EXTT8=
EXTT9=
PLAYORDER=
